<svg width="352" height="352" viewBox="0 0 352 352" fill="none" xmlns="http://www.w3.org/2000/svg">
<path d="M296.513 0.400024H55.0872C24.43 0.400024 0 25.2751 0 55.4123V296.988C0 327.603 24.43 352 55.0872 352H296.513C327.17 352 351.6 327.603 351.6 296.988V55.4123C351.6 25.2751 327.17 0.400024 296.513 0.400024Z" fill="url(#paint0_linear_55_2562)"/>
<path d="M203.103 279.767H171.966L93.8862 210.882L171.966 141.518H203.103L125.022 210.882L203.103 279.767Z" fill="white"/>
<path d="M163.345 279.767H132.688L54.1284 210.882L132.209 141.518H163.345L85.2647 210.882L163.345 279.767Z" fill="white"/>
<path d="M148.498 72.6337H179.634L257.714 141.997L179.634 210.882H148.498L226.578 141.997L148.498 72.6337Z" fill="white"/>
<path d="M187.777 72.6337H218.913L297.472 141.997L219.392 210.882H188.256L266.336 141.997L187.777 72.6337Z" fill="white"/>
<path d="M111.609 89.3765C111.609 98.9439 103.945 106.119 94.8438 106.119C85.2634 106.119 78.0781 98.9439 78.0781 89.3765C78.0781 80.2875 85.2634 72.6337 94.8438 72.6337C103.945 72.6337 111.609 80.2875 111.609 89.3765Z" fill="white"/>
<path d="M148.499 106.12C148.499 111.382 144.187 115.687 138.918 115.687C133.649 115.687 129.338 111.382 129.338 106.12C129.338 100.858 133.649 96.5525 138.918 96.5525C144.187 96.5525 148.499 100.858 148.499 106.12Z" fill="white"/>
<path d="M239.99 263.024C239.99 253.456 247.654 246.281 256.755 246.281C265.857 246.281 273.521 253.456 273.521 263.024C273.521 272.113 265.857 279.767 256.755 279.767C247.654 279.767 239.99 272.113 239.99 263.024Z" fill="white"/>
<path d="M203.106 246.281C203.106 240.54 207.417 236.235 212.686 236.235C217.956 236.235 222.267 240.54 222.267 246.281C222.267 251.543 217.956 255.848 212.686 255.848C207.417 255.848 203.106 251.543 203.106 246.281Z" fill="white"/>
<defs>
<linearGradient id="paint0_linear_55_2562" x1="-0.220349" y1="0.50527" x2="351.753" y2="0.50527" gradientUnits="userSpaceOnUse">
<stop stop-color="#8B5CF6"/>
<stop offset="1" stop-color="#06B6D4"/>
</linearGradient>
</defs>
</svg>
